<?xml version="1.0" standalone="no"?>
<!DOCTYPE svg PUBLIC "-//W3C//DTD SVG 20010904//EN"
 "http://www.w3.org/TR/2001/REC-SVG-20010904/DTD/svg10.dtd">
<svg version="1.0" xmlns="http://www.w3.org/2000/svg"
 width="392.000000pt" height="65.000000pt" viewBox="0 0 392.000000 65.000000"
 preserveAspectRatio="xMidYMid meet">

<g transform="translate(0.000000,65.000000) scale(0.100000,-0.100000)"
fill="#000000" stroke="none">
<path d="M490 383 c0 -180 2 -201 20 -230 16 -27 26 -33 56 -33 l36 0 -26 31
-26 31 0 199 0 199 -30 0 -30 0 0 -197z"/>
<path d="M100 340 l0 -220 185 0 185 0 0 25 0 25 -155 0 -155 0 0 80 0 80 130
0 c109 0 130 2 130 15 0 13 -21 15 -130 15 l-130 0 0 75 0 75 150 0 150 0 0
25 0 25 -180 0 -180 0 0 -220z"/>
<path d="M2590 485 c0 -33 -2 -35 -35 -35 -26 0 -35 -4 -35 -16 0 -12 8 -15
33 -12 l32 3 -3 -125 c-3 -116 -2 -127 17 -147 28 -29 65 -38 110 -27 52 13
48 39 -6 39 -23 0 -48 6 -55 13 -9 9 -14 51 -16 127 l-4 115 51 0 c39 0 51 4
51 15 0 11 -12 15 -50 15 l-50 0 0 35 c0 28 -4 35 -20 35 -16 0 -20 -7 -20
-35z"/>
<path d="M699 423 c-156 -80 -108 -274 74 -299 60 -9 125 2 166 27 32 19 32
21 16 39 -16 18 -18 18 -58 -1 -23 -10 -58 -19 -77 -19 -51 0 -116 33 -134 69
-30 57 -31 56 149 53 182 -4 182 -4 150 57 -48 95 -178 128 -286 74z m165 -37
c31 -13 66 -49 66 -68 0 -5 -56 -8 -125 -8 -106 0 -125 2 -125 15 0 21 46 63
73 68 45 9 79 7 111 -7z"/>
<path d="M1050 285 l0 -165 25 0 c25 0 25 1 25 79 0 103 7 136 37 165 48 48
158 42 182 -10 6 -14 11 -72 11 -129 l0 -105 30 0 30 0 0 98 c0 78 4 103 20
129 24 40 81 59 136 47 58 -14 74 -53 74 -176 0 -98 0 -98 25 -98 l25 0 0 120
c0 143 -10 170 -70 194 -78 31 -164 13 -198 -42 l-18 -30 -17 29 c-30 53 -118
73 -196 46 -43 -15 -70 -65 -78 -141 -3 -31 -10 -56 -14 -56 -15 0 -10 128 6
167 19 45 19 43 -10 43 l-25 0 0 -165z"/>
<path d="M1837 436 c-130 -48 -157 -191 -53 -271 69 -52 208 -57 281 -9 26 17
26 17 7 37 -18 18 -21 18 -43 4 -35 -23 -99 -31 -146 -18 -46 13 -93 60 -93
94 0 22 1 22 160 19 l160 -3 0 24 c0 36 -40 87 -84 111 -50 25 -138 31 -189
12z m148 -50 c19 -8 41 -28 50 -45 l16 -31 -131 0 c-71 0 -130 3 -130 8 0 18
35 55 64 68 41 17 88 17 131 0z"/>
<path d="M2160 285 l0 -165 29 0 29 0 4 110 c3 104 4 111 31 137 37 38 114 40
149 5 21 -20 23 -34 26 -137 l4 -115 30 0 30 0 -4 123 c-3 95 -8 128 -22 149
-46 70 -179 79 -221 15 -9 -14 -22 -53 -29 -88 -8 -42 -14 -56 -18 -43 -5 20
1 71 17 142 7 31 6 32 -24 32 l-31 0 0 -165z"/>
<path d="M2802 319 l3 -131 32 -28 c54 -48 152 -52 193 -8 10 11 25 46 31 77
7 31 16 63 20 71 15 26 10 -64 -6 -115 -8 -27 -12 -52 -9 -57 3 -4 23 -8 45
-8 39 0 40 0 25 22 -13 18 -16 52 -16 165 l0 143 -30 0 -30 0 0 -100 c0 -70
-5 -110 -15 -130 -28 -54 -136 -65 -170 -17 -11 16 -15 49 -15 134 l0 113 -31
0 -31 0 4 -131z"/>
<path d="M3190 285 l0 -165 30 0 30 0 0 98 c0 114 10 140 64 166 31 15 47 17
85 10 65 -13 81 -47 81 -176 0 -98 0 -98 25 -98 25 0 25 1 25 85 0 90 16 147
48 171 49 36 150 24 171 -22 6 -14 11 -72 11 -129 l0 -105 30 0 30 0 0 110 c0
164 -24 205 -126 216 -68 8 -122 -12 -144 -53 l-17 -32 -22 30 c-41 55 -125
74 -195 45 -47 -19 -63 -48 -78 -134 -8 -49 -15 -68 -19 -55 -13 32 -9 97 10
151 l18 52 -29 0 -28 0 0 -165z"/>
</g>
</svg>
